<?xml version="1.0" standalone="no"?>
<!DOCTYPE svg PUBLIC "-//W3C//DTD SVG 20010904//EN"
 "http://www.w3.org/TR/2001/REC-SVG-20010904/DTD/svg10.dtd">
<svg version="1.0" xmlns="http://www.w3.org/2000/svg"
 width="200px" height="50px" viewBox="0 0 426.000000 138.000000"
 preserveAspectRatio="xMidYMid meet">

<g transform="translate(0.000000,138.000000) scale(0.100000,-0.100000)"
fill="#fff" stroke="none">
<path d="M594 1356 c-253 -67 -466 -210 -543 -367 -36 -74 -48 -152 -29 -189
16 -31 72 -60 116 -60 29 0 32 2 26 24 -9 38 14 134 53 215 67 141 224 262
398 306 87 22 226 20 273 -4 57 -29 75 -69 74 -165 -2 -304 -238 -798 -441
-928 -56 -35 -119 -38 -146 -8 -24 27 -31 109 -16 197 45 258 271 696 417 807
l45 35 -45 6 c-193 29 -395 -142 -551 -467 -66 -137 -119 -295 -135 -403 -37
-241 72 -360 311 -342 101 8 197 41 283 97 214 141 386 402 473 717 23 81 27
118 28 218 0 104 -3 127 -23 171 -29 63 -72 106 -137 136 -44 20 -69 23 -195
25 -126 3 -157 0 -236 -21z"/>
<path d="M1984 1301 c-124 -56 -140 -228 -24 -262 126 -38 257 113 193 222
-19 31 -68 59 -105 59 -12 0 -42 -9 -64 -19z"/>
<path d="M3212 1299 c-93 -46 -128 -165 -68 -228 51 -54 130 -53 192 1 45 40
64 77 64 128 0 50 -24 88 -67 106 -45 19 -71 17 -121 -7z"/>
<path d="M1555 1273 c-55 -8 -103 -17 -107 -21 -3 -4 -91 -225 -194 -492 -176
-456 -187 -490 -192 -566 -6 -103 10 -137 75 -166 87 -39 222 -6 339 83 60 45
64 47 64 25 0 -34 40 -88 80 -109 79 -41 259 8 358 97 l40 36 6 -34 c13 -69
89 -116 188 -116 60 0 154 26 208 57 66 39 185 157 241 241 118 177 225 481
205 586 -12 63 -69 89 -139 62 -49 -18 -77 -58 -77 -108 0 -54 19 -72 68 -65
23 3 42 4 42 2 0 -2 -12 -41 -26 -87 -65 -206 -215 -438 -318 -490 -39 -20
-95 -26 -116 -13 -24 15 -1 95 119 406 66 174 121 319 121 323 0 3 -57 6 -127
6 l-128 0 -84 -223 c-148 -389 -156 -406 -202 -453 -51 -52 -83 -66 -140 -62
-43 3 -44 4 -47 41 -3 35 60 211 245 685 4 9 -25 12 -124 12 l-130 0 -114
-297 c-63 -164 -127 -318 -144 -343 -42 -62 -101 -101 -153 -102 -56 -1 -75
17 -69 59 5 27 173 474 356 941 l39 102 -31 -1 c-18 -1 -77 -8 -132 -16z"/>
<path d="M3747 930 c-191 -48 -387 -282 -463 -551 -32 -115 -42 -131 -99 -165
-76 -44 -145 -32 -145 26 0 15 55 169 121 341 67 173 124 322 126 332 5 16 -6
17 -123 17 l-129 0 -123 -323 c-67 -177 -127 -346 -133 -375 -25 -121 19 -203
117 -218 95 -14 223 31 313 112 l49 44 7 -31 c10 -44 59 -95 111 -115 95 -36
218 1 320 98 l53 50 6 -28 c18 -84 54 -122 125 -131 64 -9 124 19 169 80 21
29 43 62 50 74 10 20 8 21 -24 21 -44 0 -65 17 -65 52 0 15 53 166 119 337 65
170 122 319 125 331 7 22 7 22 -122 22 l-129 0 -14 -42 -13 -41 -8 29 c-4 16
-18 35 -30 43 -28 17 -140 24 -191 11z m171 -116 c12 -8 22 -24 22 -35 0 -30
-166 -456 -194 -500 -53 -79 -150 -115 -198 -73 -18 17 -20 27 -15 89 13 176
164 456 277 513 52 26 77 28 108 6z"/>
</g>
</svg>
